# xmcd
#
# Track frame offsets: 
#        150
#        4982
#        18478
#        24299
#        33582
#        44850
#        60085
#        78820
#        84939
#        93411
#        110486
#        118491
#
# Disc length: 1716 seconds
#
# Revision: 0
# Processed by: cddbd v1.5.2PL0 Copyright (c) Steve Scherf et al.
# Submitted via: ExactAudioCopyFreeDBPlugin 1.0
#
DISCID=8e06b20c
DTITLE=秦四风 - 双生花集
DYEAR=2013
DGENRE=New Age
TTITLE0=淡梨
TTITLE1=双生
TTITLE2=莲水
TTITLE3=擒花
TTITLE4=偷香
TTITLE5=昔吟
TTITLE6=盲木
TTITLE7=乙心
TTITLE8=昏房
TTITLE9=静瞳
TTITLE10=伤尽
TTITLE11=幼戏
EXTD=
EXTT0=
EXTT1=
EXTT2=
EXTT3=
EXTT4=
EXTT5=
EXTT6=
EXTT7=
EXTT8=
EXTT9=
EXTT10=
EXTT11=
PLAYORDER=
